<svg xmlns="http://www.w3.org/2000/svg" width="30" height="30" viewBox="0 0 30 30">
    <g fill="none" fill-rule="nonzero">
        <path fill="#6A71FF" d="M23.526 21.36l-2.683 1.73a2.134 2.134 0 0 1-.02.768l2.672 1.723a1.768 1.768 0 1 1-.842 1.242l-2.642-1.704a2.118 2.118 0 1 1 .09-3.335l2.558-1.65a1.768 1.768 0 1 1 .867 1.226z"/>
        <path fill="#4D4D4D" d="M18.117 4H3.883A.883.883 0 0 0 3 4.883v14.234c0 .488.395.883.883.883h7.669v-6.188H9.469V11.39h2.083V9.608c0-2.066 1.263-3.191 3.106-3.191a17.71 17.71 0 0 1 1.86.093v2.16h-1.27c-1.004 0-1.2.475-1.2 1.176v1.542h2.4l-.311 2.422h-2.103V20h4.083a.883.883 0 0 0 .883-.883V4.883A.883.883 0 0 0 18.117 4z"/>
    </g>
</svg>