<svg xmlns="http://www.w3.org/2000/svg" width="30" height="30" viewBox="0 0 30 30">
    <g fill="none" fill-rule="nonzero">
        <path fill="#4D4D4D" d="M8.29 22.251c7.547 0 11.675-6.253 11.675-11.675 0-.178 0-.354-.012-.53A8.349 8.349 0 0 0 22 7.922a8.19 8.19 0 0 1-2.357.645 4.118 4.118 0 0 0 1.804-2.27 8.223 8.223 0 0 1-2.605.997 4.107 4.107 0 0 0-6.993 3.742 11.65 11.65 0 0 1-8.457-4.287 4.106 4.106 0 0 0 1.27 5.477 4.073 4.073 0 0 1-1.862-.513v.052a4.105 4.105 0 0 0 3.292 4.022 4.097 4.097 0 0 1-1.853.07 4.108 4.108 0 0 0 3.834 2.85A8.234 8.234 0 0 1 2 20.408a11.617 11.617 0 0 0 6.29 1.84"/>
        <path fill="#6A71FF" d="M23.526 21.36l-2.683 1.73a2.134 2.134 0 0 1-.02.768l2.672 1.723a1.768 1.768 0 1 1-.842 1.242l-2.642-1.704a2.118 2.118 0 1 1 .09-3.335l2.558-1.65a1.768 1.768 0 1 1 .867 1.226z"/>
    </g>
</svg>